<svg width="20" height="20" viewBox="0 0 20 20" fill="none" xmlns="http://www.w3.org/2000/svg">
<path d="M10 0C4.47768 0 0 4.47768 0 10C0 15.5223 4.47768 20 10 20C15.5223 20 20 15.5223 20 10C20 4.47768 15.5223 0 10 0ZM10 18.3036C5.41518 18.3036 1.69643 14.5848 1.69643 10C1.69643 5.41518 5.41518 1.69643 10 1.69643C14.5848 1.69643 18.3036 5.41518 18.3036 10C18.3036 14.5848 14.5848 18.3036 10 18.3036Z" fill="#A9A9A9"/>
<path d="M13.8996 12.8259L10.7165 10.5246V5C10.7165 4.90179 10.6362 4.82143 10.5379 4.82143H9.46429C9.36607 4.82143 9.28571 4.90179 9.28571 5V11.1473C9.28571 11.2054 9.3125 11.2589 9.35938 11.2924L13.0513 13.9844C13.1317 14.0424 13.2433 14.0246 13.3013 13.9464L13.9397 13.0759C13.9978 12.9933 13.9799 12.8817 13.8996 12.8259Z" fill="#A9A9A9"/>
</svg>
