<?xml version="1.0" encoding="utf-8"?>
<!-- Generator: Adobe Illustrator 24.3.0, SVG Export Plug-In . SVG Version: 6.00 Build 0)  -->
<svg version="1.1" id="Layer_1" xmlns="http://www.w3.org/2000/svg" xmlns:xlink="http://www.w3.org/1999/xlink" x="0px" y="0px"
	 viewBox="0 0 40 50" style="enable-background:new 0 0 40 50;" xml:space="preserve">
<style type="text/css">
	.st0{fill:#92C4DD;}
	.st1{fill:#000099;}
</style>
<desc>Created with Sketch.</desc>
<g id="Page-1">
	<g id="logo_brandmark_negative">
		<path id="Path" class="st0" d="M36.2,7.9h-3.8V4.1c0-2.1-1.7-3.8-3.8-3.8l0,0c-2.1,0-3.8,1.7-3.8,3.8v3.8H17v7.7h7.7v7.7h7.7v-7.7
			h3.8c2.1,0,3.8-1.7,3.8-3.8S38.3,7.9,36.2,7.9z"/>
		<path id="Path_1_" class="st1" d="M24.7,25.9v8.4c0,5.8-2.7,8.4-8.7,8.4c-6,0-8.7-2.6-8.7-8.4V15.4h7.3V8H0v26.2
			C0,43.7,5.6,50,16,50s16-6.3,16-15.8v-8.4H24.7z"/>
	</g>
</g>
</svg>
