<svg width="51" height="64" viewBox="0 0 51 64" fill="none" xmlns="http://www.w3.org/2000/svg">
<path d="M46.155 10.112H41.31V5.248C41.31 2.56 39.1425 0.384003 36.465 0.384003C33.7875 0.384003 31.62 2.56 31.62 5.248V10.112H21.675V19.968H31.4925V29.824H41.31V19.968H46.155C48.8325 19.968 51 17.792 51 15.104C51 12.416 48.8325 10.112 46.155 10.112Z" fill="#92C4DD"/>
<path d="M31.4925 33.152V43.904C31.4925 51.328 28.05 54.656 20.4 54.656C12.75 54.656 9.3075 51.328 9.3075 43.904V19.712H18.615V10.24H0V43.776C0 55.936 7.14 64 20.4 64C33.66 64 40.8 55.936 40.8 43.776V33.024H31.4925V33.152Z" fill="#000099"/>
</svg>
