<?xml version="1.0" standalone="no"?>
<!DOCTYPE svg PUBLIC "-//W3C//DTD SVG 20010904//EN"
 "http://www.w3.org/TR/2001/REC-SVG-20010904/DTD/svg10.dtd">
<svg version="1.0" xmlns="http://www.w3.org/2000/svg"
 width="1024.000000pt" height="1024.000000pt" viewBox="0 0 1024.000000 1024.000000"
 preserveAspectRatio="xMidYMid meet">
<metadata>
Created by potrace 1.11, written by Peter Selinger 2001-2013
</metadata>
<g transform="translate(0.000000,1024.000000) scale(0.100000,-0.100000)"
fill="#000000" stroke="none">
<path d="M1200 5120 l0 -5120 3900 0 3900 0 0 5120 0 5120 -3900 0 -3900 0 0
-5120z m5850 3429 c0 -510 -7 -634 -51 -854 -78 -391 -275 -805 -545 -1145
-95 -120 -388 -410 -519 -514 -693 -552 -1610 -873 -2608 -913 l-171 -6 1949
-1943 1950 -1943 -1952 -1 -1953 0 0 3890 0 3890 1950 0 1950 0 0 -461z"/>
</g>
</svg>
